<svg xmlns="http://www.w3.org/2000/svg" xmlns:xlink="http://www.w3.org/1999/xlink" width="31" height="31.859" viewBox="0 0 31 31.859">
  <defs>
	<clipPath id="clip-path">
	  <path id="Lin" d="M11.882,31.661a5.892,5.892,0,0,1-.68-1.334,4.5,4.5,0,0,1-1.024-1.84,5.239,5.239,0,0,1,.761-2.982,7.907,7.907,0,0,0,.534-1.27,10.623,10.623,0,0,1,.36-1.254,8.721,8.721,0,0,1-1.665-.485,13.282,13.282,0,0,1-3.831-2.828,2.372,2.372,0,0,1-.6-2.046A23.3,23.3,0,0,1,6.73,14.56c.062-.187.11-.353.139-.482a2.547,2.547,0,0,1-.019-2.114A2.476,2.476,0,0,1,7.2,11.4a6.392,6.392,0,0,1-.551-.477l0,0a6.365,6.365,0,0,1-1.855-3.27.751.751,0,0,1,.489-.935,1.188,1.188,0,0,1,.5-.112,3.583,3.583,0,0,1,.843.035,13.219,13.219,0,0,1,3.656,1.808l.125.082,0,0a2.034,2.034,0,0,0,.41-.334,2.994,2.994,0,0,0,.732-1.768.2.2,0,0,1,.091.16,3.791,3.791,0,0,0,.165-.679,3.791,3.791,0,0,1,.208,1.359A3.309,3.309,0,0,1,14.521,6.5a5.966,5.966,0,0,0-1.12.975s1.561.417,1.832.547a3.643,3.643,0,0,1,.912.4l-.1-.068a12.1,12.1,0,0,1,2.245-1.887,3.25,3.25,0,0,1,2.377-.681,2.817,2.817,0,0,1,.3.037l0,0,.052.012c.049.01.1.019.147.032.516,2.918-1.509,6.5-1.509,6.5l-.025-.15a.064.064,0,0,0-.007.014,2.532,2.532,0,0,1-.017.863,1.289,1.289,0,0,0,.431.558,3.316,3.316,0,0,1,.949,3.481c-.478,1.71-2.355,4.764-4.725,5.611a2.958,2.958,0,0,1,.35.5h0c.031.059,1.153,2.235,1.533,3.273a3.061,3.061,0,0,1-.091,2.558,3.727,3.727,0,0,1-.859,1.2,6,6,0,0,1-.532,1.4C15.306,31.671,12.327,31.669,11.882,31.661Zm3.737-.057c-.06-.086-.118-.17-.149-.22a.249.249,0,0,0-.2-.1c-.076.019-.154.035-.234.05a2.914,2.914,0,0,1-.527.071l-.066,0-.024,0,.013,0-.068,0a5.633,5.633,0,0,1-.742.031l-.04,0s-.034,0-.1-.007a3.279,3.279,0,0,1-.626-.094c-.018.091-.038.176-.057.257.446-.02.921-.031,1.409-.031S15.174,31.585,15.619,31.6Z" transform="translate(14994.321 2872.188)" fill="#089ccc" stroke="rgba(0,0,0,0)" stroke-width="0.5"/>
	</clipPath>
  </defs>
  <g id="Group_780" data-name="Group 780" transform="translate(-14991.891 -2872)">
	<path id="Path_2477" data-name="Path 2477" d="M15.5,0A15.5,15.5,0,1,1,0,15.5,15.5,15.5,0,0,1,15.5,0Z" transform="translate(14991.891 2872)" fill="#b9eeff"/>
	<g id="Mask_Group_22" data-name="Mask Group 22" opacity="0.627" clip-path="url(#clip-path)">
	  <path id="Path_2475" data-name="Path 2475" d="M15.5,0A15.5,15.5,0,1,1,0,15.5,15.5,15.5,0,0,1,15.5,0Z" transform="translate(14991.891 2872)" fill="#089ccc"/>
	</g>
  </g>
</svg>